PathFileType	4	(X/Y/Z)	D:\MotionData\Pi-Spi Study\20230118_AMCsubject1\Trimmed_right_horiz_abd01_rotated.trc
DataRate	CameraRate	NumFrames	NumMarkers	Units	OrigDataRate	OrigDataStartFrame	OrigNumFrames
200.00	200.00	       7	35	mm	200.00	176	       200
Frame#	Time	C7			Sternum			r_AMC1			r_AMC2			r_AMC3			l_AMC1			l_AMC2			l_AMC3			PX			T8			r_humerous			r_elbow_medial			r_elbow_lateral			r_forearm			r_wrist_radius			r_wrist_ulna			r_MCP_1			r_MCP_3			l_humerous			l_elbow_medial			l_elbow_lateral			l_forearm			l_wrist_radius			l_wrist_ulna			l_MCP_1			l_MCP_3			r_ASIS			r_PSIS			l_ASIS			l_PSIS			r_IC			l_IC			TS			AI			AA			
		X1	Y1	Z1	X2	Y2	Z2	X3	Y3	Z3	X4	Y4	Z4	X5	Y5	Z5	X6	Y6	Z6	X7	Y7	Z7	X8	Y8	Z8	X9	Y9	Z9	X10	Y10	Z10	X11	Y11	Z11	X12	Y12	Z12	X13	Y13	Z13	X14	Y14	Z14	X15	Y15	Z15	X16	Y16	Z16	X17	Y17	Z17	X18	Y18	Z18	X19	Y19	Z19	X20	Y20	Z20	X21	Y21	Z21	X22	Y22	Z22	X23	Y23	Z23	X24	Y24	Z24	X25	Y25	Z25	X26	Y26	Z26	X27	Y27	Z27	X28	Y28	Z28	X29	Y29	Z29	X30	Y30	Z30	X31	Y31	Z31	X32	Y32	Z32	X33	Y33	Z33	X34	Y34	Z34	X35	Y35	Z35	

176	0.875	216.3608	1376.9121	-262.7091	344.048	1309.4865	-233.4792	174.5208	1364.1298	-136.5083	201.3157	1387.5286	-101.6657	226.1224	1407.3675	-133.8878	242.8989	1314.5059	-409.8177	283.0946	1301.3546	-439.9593	307.9684	1336.2527	-411.0743	379.7867	1113.5579	-200.3508	157.1666	1199.8781	-252.8242	236.8506	1367.7749	46.8751	202.8424	1281.9187	167.9444	159.8183	1323.8192	158.8041	115.2004	1340.5044	316.8765	112.2705	1364.8284	389.0773	108.9893	1313.0837	386.1757	94.2372	1369.9675	473.5531	97.426	1322.5129	472.9715	345.7064	1106.0823	-417.6549	263.9287	978.9573	-407.7269	285.8897	975.5886	-459.1488	345.123	827.7195	-472.8733	388.0124	758.2654	-445.464	348.7231	753.1365	-467.904	404.4148	681.312	-452.9872	360.4065	676.7009	-470.1577	344.152	906.0676	-63.591	160.9353	928.9933	-156.8979	357.9878	889.6854	-324.731	166.1596	923.0948	-259.2385	260.9069	971.9092	-42.0878	271.3114	937.1464	-367.4961	114.8025	1331.4224	-207.8275	99.5182	1235.8719	-175.7048	131.5406	1368.0527	-69.247
177	0.88	216.3919	1376.8564	-262.7416	344.0738	1309.4652	-233.4688	174.5251	1364.1404	-136.523	201.3273	1387.524	-101.6753	226.1389	1407.36	-133.9017	242.9539	1314.4172	-409.822	283.07	1301.345	-439.9569	307.9867	1336.2192	-411.0021	379.8063	1113.5267	-200.358	157.2004	1199.8876	-252.8509	236.8685	1367.7695	46.8589	202.9028	1281.9128	167.9052	159.8277	1323.834	158.803	115.1832	1340.5056	316.8639	112.2594	1364.8617	389.0934	109.0489	1313.1763	386.1778	94.2445	1369.9641	473.5673	97.4048	1322.4925	472.9699	345.7489	1106.0198	-417.6787	263.936	978.9429	-407.7029	285.893	975.5657	-459.1477	345.0763	827.7138	-472.9134	387.9683	758.2501	-445.6224	348.6352	753.1091	-467.9249	404.2769	681.3994	-453.0124	360.2746	676.6462	-470.1414	344.2064	906.047	-63.6154	159.5357	929.2338	-155.2632	358.0068	889.6845	-324.7267	166.1653	923.0696	-259.2421	260.8942	971.9381	-42.0741	271.307	937.1519	-367.4735	114.8134	1331.441	-207.8619	99.5195	1235.86	-175.6689	131.5189	1368.0646	-69.2555
178	0.885	216.3942	1376.8629	-262.7938	344.0783	1309.4622	-233.4932	174.5371	1364.1461	-136.5381	201.3039	1387.541	-101.7005	226.1582	1407.3656	-133.9264	242.9754	1314.4445	-409.827	283.1829	1301.3053	-440.0409	307.9862	1336.2699	-410.9978	379.7677	1113.5319	-200.3017	157.2192	1199.8874	-252.8573	236.8955	1367.7627	46.8296	202.8512	1281.9265	167.9299	159.8439	1323.8229	158.7777	115.1976	1340.4856	316.851	112.2849	1364.8362	389.0668	109.0212	1313.0748	386.1238	94.26	1369.9672	473.5692	97.4303	1322.4778	472.9398	345.7727	1105.9944	-417.7023	263.9188	978.9293	-407.692	285.8731	975.552	-459.1497	345.3265	827.6625	-472.9645	387.9141	758.1959	-445.6104	348.5784	753.0711	-467.9107	404.1987	681.2916	-452.9786	360.1188	676.5773	-470.137	344.1957	906.0043	-63.5895	160.9144	928.9746	-156.8706	358.0399	889.6815	-324.7405	166.1776	923.0986	-259.25	260.9458	971.8863	-42.0924	271.5815	936.9393	-367.4979	114.8132	1331.4504	-207.866	99.5286	1235.8536	-175.6817	131.5284	1368.0633	-69.2893
179	0.89	216.4166	1376.864	-262.8087	344.0992	1309.465	-233.4964	174.5483	1364.1531	-136.5625	201.3553	1387.5348	-101.7333	226.1996	1407.399	-133.9402	242.9796	1314.4397	-409.7688	283.2714	1301.277	-440.0235	308.1014	1336.1764	-410.936	379.8163	1113.4957	-200.2845	157.2442	1199.8842	-252.8936	236.8758	1367.7891	46.8353	202.8529	1281.9594	167.8753	159.8546	1323.8466	158.7671	115.2201	1340.5082	316.8445	112.3039	1364.8193	389.0494	109.0452	1313.08	386.092	94.3006	1369.9625	473.5561	97.4448	1322.4623	472.937	345.8649	1105.8046	-417.6155	263.9172	978.9081	-407.6924	285.8851	975.5453	-459.138	345.0003	827.6481	-472.8825	387.8651	758.1523	-445.6103	348.5155	753.0359	-467.8943	404.112	681.1885	-452.9688	360.0353	676.5333	-470.1182	344.2121	906.0263	-63.5786	160.6983	929.1659	-156.6883	358.0549	889.68	-324.7343	166.1987	923.0903	-259.2574	260.9701	971.8561	-42.1102	271.5278	936.9907	-367.4862	114.8387	1331.4371	-207.9097	99.5646	1235.8901	-175.6983	131.5182	1368.0444	-69.3457
180	0.895	216.4513	1376.8684	-262.7812	344.1362	1309.4307	-233.5069	174.5641	1364.1516	-136.5647	201.3818	1387.5298	-101.7461	226.2095	1407.3654	-133.974	243.067	1314.3802	-409.8358	283.3325	1301.1372	-439.979	308.0915	1336.1521	-410.9641	379.8234	1113.4876	-200.246	157.2767	1199.886	-252.8945	236.934	1367.7388	46.816	202.8822	1281.921	167.8745	159.8445	1323.8436	158.7593	115.2341	1340.5279	316.8291	112.3048	1364.8511	389.0723	109.085	1313.1788	386.0931	94.3037	1369.9207	473.5527	97.449	1322.4694	472.9237	345.8744	1105.8516	-417.6564	263.8908	978.8838	-407.6843	285.8729	975.5276	-459.1271	345.2497	827.5906	-472.9403	387.8131	758.1164	-445.6029	348.4023	752.9854	-467.8774	404.0701	681.0152	-452.8777	359.9391	676.491	-470.1185	344.2146	906.0064	-63.5711	160.9541	928.9945	-156.8927	358.0933	889.6717	-324.7295	166.2483	923.0712	-259.2711	260.9809	971.8546	-42.0947	271.5836	937.0045	-367.4784	114.8405	1331.4244	-207.9436	99.5907	1235.8578	-175.7574	131.5198	1368.0549	-69.3718
181	0.9	216.4594	1376.8446	-262.795	344.1285	1309.4357	-233.5206	174.5686	1364.1599	-136.5938	201.3573	1387.5337	-101.7579	226.2255	1407.3677	-133.975	243.1337	1314.3204	-409.8349	283.2879	1301.2566	-440.0583	308.1946	1336.0726	-411.1151	379.8714	1113.4714	-200.2905	157.3259	1199.8829	-252.9139	236.9103	1367.7899	46.803	202.8907	1281.921	167.8381	159.8652	1323.8656	158.7415	115.2472	1340.5429	316.8076	112.3426	1364.8317	389.0572	109.0259	1313.0767	386.0918	94.3431	1369.927	473.5375	97.465	1322.4605	472.9139	345.8829	1105.7833	-417.6589	263.8869	978.8853	-407.6732	285.8835	975.5103	-459.1158	344.8825	827.6048	-472.9154	387.7407	758.0325	-445.4281	348.3352	752.9705	-467.8847	403.9524	681.0543	-452.9521	359.8184	676.4318	-470.1456	344.2389	905.9772	-63.5736	159.5916	929.3406	-155.1878	358.104	889.6555	-324.7103	166.2431	923.0834	-259.2725	260.9637	971.8709	-42.0715	271.5893	937.0496	-367.4574	114.8543	1331.4217	-207.9603	99.6019	1235.8279	-175.7905	131.5191	1368.0702	-69.3722
182	0.905	216.4693	1376.8391	-262.8496	344.1628	1309.4248	-233.5422	174.7379	1364.0043	-136.661	201.3654	1387.5228	-101.798	226.2898	1407.3232	-134.0042	243.1756	1314.3818	-409.9007	283.3924	1301.1334	-439.9983	308.1225	1336.1984	-411.0483	379.8753	1113.5011	-200.2532	157.3609	1199.8796	-252.9453	236.9477	1367.7485	46.779	202.8843	1281.9318	167.8174	159.8614	1323.9137	158.7498	115.2758	1340.5615	316.781	112.3498	1364.8557	389.0485	109.0706	1313.1991	386.0571	94.3742	1369.9268	473.5468	97.4565	1322.4446	472.8852	345.8678	1105.7617	-417.6174	263.8795	978.865	-407.6357	285.8864	975.4913	-459.111	345.1194	827.499	-472.9629	387.6605	758.0132	-445.5744	348.2059	752.9111	-467.8937	403.8815	680.8925	-452.8598	359.7394	676.4055	-470.1406	344.2838	906.0101	-63.6107	160.7819	929.0836	-156.7945	358.1032	889.6561	-324.7093	166.2824	923.0934	-259.2748	261.0035	971.8472	-42.0814	271.6479	937.0126	-367.4954	114.8684	1331.4061	-207.971	99.6227	1235.8231	-175.8367	131.5128	1368.0481	-69.4309
